<?xml version="1.0" standalone="no"?>
<!DOCTYPE svg PUBLIC "-//W3C//DTD SVG 20010904//EN"
 "http://www.w3.org/TR/2001/REC-SVG-20010904/DTD/svg10.dtd">
<svg version="1.0" xmlns="http://www.w3.org/2000/svg"
 width="86.000000pt" height="85.000000pt" viewBox="0 0 86.000000 85.000000"
 preserveAspectRatio="xMidYMid meet">

<g transform="translate(0.000000,85.000000) scale(0.100000,-0.100000)"
fill="#000000" stroke="none">
<path d="M343 745 c-11 -8 -24 -27 -28 -42 -9 -38 -32 -51 -77 -45 -46 6 -61
-6 -94 -70 -29 -58 -30 -79 -4 -103 26 -23 26 -59 0 -85 -26 -26 -25 -50 5
-110 29 -57 55 -75 97 -66 40 8 64 -7 78 -48 8 -25 20 -37 42 -45 74 -26 140
-6 162 48 17 43 33 53 75 45 41 -9 68 10 96 66 30 60 31 84 5 110 -11 11 -20
31 -20 43 0 13 9 32 20 42 26 24 25 45 -4 103 -33 64 -48 76 -94 70 -45 -6
-68 7 -77 45 -10 40 -41 57 -105 57 -33 0 -64 -6 -77 -15z m117 -75 c0 -23 7
-33 33 -46 17 -9 40 -23 50 -32 14 -12 22 -13 43 -4 13 7 27 12 28 12 6 0 47
-72 44 -75 -2 -1 -13 -8 -25 -14 -20 -10 -23 -20 -23 -70 0 -52 2 -59 25 -69
l26 -12 -21 -40 c-19 -36 -22 -39 -44 -28 -27 11 -31 10 -91 -25 -28 -17 -41
-31 -43 -50 -3 -24 -8 -27 -42 -27 -34 0 -39 3 -42 27 -2 19 -15 33 -43 50
-60 35 -64 36 -91 25 -22 -11 -25 -8 -44 28 l-21 40 26 12 c23 10 25 17 25 70
0 52 -3 60 -25 70 l-24 11 20 38 c22 44 20 43 53 27 21 -9 29 -8 43 4 10 9 33
23 51 32 25 13 32 23 32 46 0 28 2 30 40 30 38 0 40 -2 40 -30z"/>
<path d="M369 491 c-33 -33 -35 -50 -14 -90 36 -70 145 -36 145 44 0 24 -55
75 -80 75 -12 0 -35 -13 -51 -29z"/>
</g>
</svg>
