<?xml version="1.0" standalone="no"?>
<!DOCTYPE svg PUBLIC "-//W3C//DTD SVG 20010904//EN"
 "http://www.w3.org/TR/2001/REC-SVG-20010904/DTD/svg10.dtd">
<svg version="1.0" xmlns="http://www.w3.org/2000/svg"
 width="83.000000pt" height="82.000000pt" viewBox="0 0 83.000000 82.000000"
 preserveAspectRatio="xMidYMid meet">

<g transform="translate(0.000000,82.000000) scale(0.100000,-0.100000)"
fill="#000000" stroke="none">
<path d="M243 760 c-12 -5 -30 -21 -40 -37 -16 -24 -18 -56 -20 -293 -3 -277
2 -323 38 -356 19 -17 38 -19 189 -19 189 0 200 4 220 74 13 47 13 515 0 562
-19 69 -33 74 -209 76 -86 1 -166 -2 -178 -7z m325 -62 c17 -17 17 -559 0
-576 -17 -17 -299 -17 -316 0 -17 17 -17 559 0 576 17 17 299 17 316 0z"/>
<path d="M344 665 c-14 -35 3 -46 68 -43 60 3 63 4 63 28 0 24 -3 25 -63 28
-49 2 -64 0 -68 -13z"/>
</g>
</svg>
