<?xml version="1.0" standalone="no"?>
<!DOCTYPE svg PUBLIC "-//W3C//DTD SVG 20010904//EN"
 "http://www.w3.org/TR/2001/REC-SVG-20010904/DTD/svg10.dtd">
<svg version="1.0" xmlns="http://www.w3.org/2000/svg"
 width="117.000000pt" height="115.000000pt" viewBox="0 0 117.000000 115.000000"
 preserveAspectRatio="xMidYMid meet">

<g transform="translate(0.000000,115.000000) scale(0.100000,-0.100000)"
fill="#000000" stroke="none">
<path d="M410 897 c-19 -6 -58 -34 -86 -62 -68 -68 -76 -100 -72 -300 l3 -160
160 -3 c105 -2 175 1 205 10 59 16 141 96 158 154 15 53 15 155 0 208 -16 55
-99 138 -154 154 -50 15 -166 14 -214 -1z m207 -62 c21 -9 46 -23 57 -33 74
-66 74 -258 0 -324 -44 -38 -89 -48 -229 -48 l-135 0 0 135 c0 179 19 227 105
266 50 23 152 25 202 4z"/>
<path d="M459 755 c-26 -14 -53 -58 -42 -69 13 -13 43 -5 53 15 8 14 19 19 38
17 38 -4 39 -33 3 -67 -60 -56 -18 -74 43 -19 27 24 36 39 36 64 0 60 -71 92
-131 59z"/>
<path d="M480 540 c0 -27 3 -30 30 -30 27 0 30 3 30 30 0 27 -3 30 -30 30 -27
0 -30 -3 -30 -30z"/>
<path d="M836 665 c3 -33 8 -127 11 -208 l4 -148 -148 5 c-81 3 -175 8 -208
11 l-60 6 33 -30 c51 -44 98 -52 277 -49 l160 3 3 160 c3 179 -5 226 -49 277
l-29 33 6 -60z"/>
</g>
</svg>
