<?xml version="1.0" standalone="no"?>
<!DOCTYPE svg PUBLIC "-//W3C//DTD SVG 20010904//EN"
 "http://www.w3.org/TR/2001/REC-SVG-20010904/DTD/svg10.dtd">
<svg version="1.0" xmlns="http://www.w3.org/2000/svg"
 width="78.000000pt" height="77.000000pt" viewBox="0 0 78.000000 77.000000"
 preserveAspectRatio="xMidYMid meet">

<g transform="translate(0.000000,77.000000) scale(0.100000,-0.100000)"
fill="#000000" stroke="none">
<path d="M139 631 l-29 -29 0 -137 0 -137 29 -29 29 -29 137 0 137 0 29 29 29
29 0 137 0 137 -29 29 -29 29 -137 0 -137 0 -29 -29z m296 -166 l0 -130 -130
0 -130 0 -3 119 c-1 66 0 126 2 133 4 11 34 13 133 11 l128 -3 0 -130z"/>
<path d="M530 481 c0 -25 4 -30 28 -33 l27 -3 0 -130 0 -130 -130 0 -130 0 -3
28 c-3 23 -8 27 -33 27 -26 0 -29 -3 -29 -31 0 -20 10 -40 29 -60 l29 -29 137
0 137 0 29 29 29 29 0 137 0 137 -29 29 c-20 19 -40 29 -60 29 -28 0 -31 -3
-31 -29z"/>
</g>
</svg>
