<?xml version="1.0" standalone="no"?>
<!DOCTYPE svg PUBLIC "-//W3C//DTD SVG 20010904//EN"
 "http://www.w3.org/TR/2001/REC-SVG-20010904/DTD/svg10.dtd">
<svg version="1.0" xmlns="http://www.w3.org/2000/svg"
 width="89.000000pt" height="88.000000pt" viewBox="0 0 89.000000 88.000000"
 preserveAspectRatio="xMidYMid meet">

<g transform="translate(0.000000,88.000000) scale(0.100000,-0.100000)"
fill="#000000" stroke="none">
<path d="M150 751 c-5 -11 -10 -45 -10 -75 0 -56 0 -56 30 -56 29 0 30 2 30
45 l0 45 45 0 c43 0 45 1 45 30 l0 30 -65 0 c-53 0 -66 -3 -75 -19z"/>
<path d="M590 740 c0 -29 2 -30 45 -30 l45 0 0 -45 c0 -43 1 -45 30 -45 l30 0
0 63 c0 36 -5 68 -12 75 -7 7 -39 12 -75 12 l-63 0 0 -30z"/>
<path d="M289 531 c-20 -20 -29 -40 -29 -61 0 -39 24 -87 48 -94 11 -4 24 -18
31 -32 8 -19 17 -25 38 -22 32 4 44 28 14 28 -28 0 -27 14 3 29 79 43 46 181
-44 181 -22 0 -41 -9 -61 -29z m102 -35 c15 -31 4 -72 -21 -86 -44 -23 -85 34
-61 86 8 18 18 24 41 24 23 0 33 -6 41 -24z"/>
<path d="M460 465 c0 -88 1 -95 20 -95 16 0 20 7 20 35 0 27 4 35 18 35 10 0
26 -15 36 -35 14 -25 26 -35 43 -35 l25 0 -22 35 c-21 33 -21 37 -6 54 22 24
20 57 -4 81 -15 15 -33 20 -75 20 l-55 0 0 -95z m107 39 c7 -19 -13 -34 -44
-34 -18 0 -23 6 -23 25 0 21 5 25 30 25 19 0 33 -6 37 -16z"/>
<path d="M140 257 c0 -36 5 -68 12 -75 7 -7 39 -12 75 -12 l63 0 0 30 c0 29
-2 30 -45 30 l-45 0 0 45 c0 43 -1 45 -30 45 l-30 0 0 -63z"/>
<path d="M680 275 l0 -45 -45 0 c-43 0 -45 -1 -45 -30 l0 -30 63 0 c36 0 68 5
75 12 7 7 12 39 12 75 l0 63 -30 0 c-29 0 -30 -2 -30 -45z"/>
</g>
</svg>
