<?xml version="1.0" standalone="no"?>
<!DOCTYPE svg PUBLIC "-//W3C//DTD SVG 20010904//EN"
 "http://www.w3.org/TR/2001/REC-SVG-20010904/DTD/svg10.dtd">
<svg version="1.0" xmlns="http://www.w3.org/2000/svg"
 width="97.000000pt" height="96.000000pt" viewBox="0 0 97.000000 96.000000"
 preserveAspectRatio="xMidYMid meet">

<g transform="translate(0.000000,96.000000) scale(0.100000,-0.100000)"
fill="#000000" stroke="none">
<path d="M195 831 c-11 -5 -31 -21 -45 -36 l-25 -27 0 -289 0 -289 33 -32 32
-33 290 0 290 0 32 33 33 32 0 290 0 290 -33 32 -32 33 -278 2 c-152 1 -286
-2 -297 -6z m563 -67 c22 -15 22 -18 22 -280 0 -251 -1 -265 -20 -284 -19 -19
-33 -20 -284 -20 -262 0 -265 0 -280 22 -14 19 -16 63 -16 280 0 245 1 259 20
278 19 19 33 20 278 20 217 0 261 -2 280 -16z"/>
<path d="M270 571 c0 -21 5 -31 15 -31 8 0 22 -11 31 -25 21 -32 11 -72 -21
-87 -18 -8 -25 -19 -25 -41 0 -27 2 -29 28 -22 31 7 82 52 82 72 0 10 24 13
100 13 76 0 100 -3 100 -13 0 -20 51 -65 83 -72 25 -7 27 -5 27 21 0 22 -8 33
-30 46 -20 11 -30 25 -30 40 0 29 26 68 46 68 9 0 14 11 14 31 0 29 -2 31 -27
24 -32 -7 -83 -52 -83 -72 0 -10 -24 -13 -100 -13 -76 0 -100 3 -100 13 0 20
-51 65 -82 72 -26 7 -28 5 -28 -24z"/>
</g>
</svg>
