<?xml version="1.0" standalone="no"?>
<!DOCTYPE svg PUBLIC "-//W3C//DTD SVG 20010904//EN"
 "http://www.w3.org/TR/2001/REC-SVG-20010904/DTD/svg10.dtd">
<svg version="1.0" xmlns="http://www.w3.org/2000/svg"
 width="71.000000pt" height="70.000000pt" viewBox="0 0 71.000000 70.000000"
 preserveAspectRatio="xMidYMid meet">

<g transform="translate(0.000000,70.000000) scale(0.100000,-0.100000)"
fill="#000000" stroke="none">
<path d="M284 671 c-114 -29 -202 -113 -236 -224 -19 -63 -20 -79 -11 -134 28
-159 131 -257 295 -279 33 -5 66 -1 116 15 87 26 155 84 197 168 25 50 29 70
29 138 0 67 -4 89 -27 136 -32 67 -99 132 -164 160 -53 22 -152 32 -199 20z
m182 -89 c90 -47 138 -126 138 -227 0 -78 -15 -118 -68 -173 -52 -56 -101 -77
-181 -76 -104 1 -182 50 -231 144 -25 49 -25 163 0 210 35 67 95 118 166 141
40 13 133 3 176 -19z"/>
<path d="M362 561 c-8 -4 -12 -19 -10 -32 2 -20 9 -24 38 -24 32 0 35 2 35 30
0 25 -4 30 -25 33 -14 1 -31 -2 -38 -7z"/>
<path d="M270 431 c0 -5 -3 -16 -6 -25 -5 -13 1 -16 29 -16 20 0 38 -3 40 -7
3 -5 -6 -44 -19 -87 -27 -89 -30 -126 -12 -144 20 -20 51 -14 111 24 50 31 56
38 47 55 -14 25 -24 24 -67 -6 -20 -13 -39 -23 -41 -21 -2 2 11 51 27 109 17
58 31 110 31 116 0 7 -26 11 -70 11 -38 0 -70 -4 -70 -9z"/>
</g>
</svg>
