<?xml version="1.0" standalone="no"?>
<!DOCTYPE svg PUBLIC "-//W3C//DTD SVG 20010904//EN"
 "http://www.w3.org/TR/2001/REC-SVG-20010904/DTD/svg10.dtd">
<svg version="1.0" xmlns="http://www.w3.org/2000/svg"
 width="65.000000pt" height="67.000000pt" viewBox="0 0 65.000000 67.000000"
 preserveAspectRatio="xMidYMid meet">

<g transform="translate(0.000000,67.000000) scale(0.100000,-0.100000)"
fill="#000000" stroke="none">
<path d="M220 631 c-113 -37 -196 -136 -207 -248 l-6 -54 34 3 c31 3 34 6 41
48 30 173 235 248 373 136 19 -16 18 -16 -20 -14 -35 3 -41 0 -49 -24 -5 -15
-7 -31 -3 -34 3 -4 50 -14 102 -24 70 -13 98 -14 100 -6 10 27 36 188 32 192
-3 3 -17 6 -33 7 -24 2 -29 -3 -38 -35 l-11 -36 -30 24 c-60 50 -106 67 -185
70 -41 2 -86 0 -100 -5z"/>
<path d="M557 334 c-4 -4 -7 -14 -7 -23 0 -70 -64 -160 -135 -192 -71 -33
-174 -20 -231 27 l-29 23 41 1 c35 0 43 4 48 22 8 33 -6 41 -105 59 -90 16
-91 16 -98 -5 -11 -30 -34 -177 -28 -182 2 -3 17 -6 33 -7 24 -2 29 2 37 36
l9 37 30 -25 c83 -70 199 -93 299 -60 78 26 162 112 184 188 21 74 17 101 -15
105 -14 2 -29 0 -33 -4z"/>
</g>
</svg>
